HIERARCHY
ROOT Hips
{
	OFFSET 0.000000 0.000000 0.000000
	CHANNELS 6 Xposition Yposition Zposition Xrotation Yrotation Zrotation
	JOINT LeftUpLeg_virtual
	{
		OFFSET 0.000000 0.000000 0.000000
		CHANNELS 3 Xrotation Yrotation Zrotation
		JOINT LeftUpLeg
		{
			OFFSET 11.394100 -6.187798 -0.413800
			CHANNELS 3 Xrotation Yrotation Zrotation
			JOINT LeftLeg
			{
				OFFSET 0.430247 -32.302673 3.732800
				CHANNELS 3 Xrotation Yrotation Zrotation
				JOINT LeftFoot
				{
					OFFSET -0.430247 -48.264931 -6.423300
					CHANNELS 3 Xrotation Yrotation Zrotation
					JOINT LeftToeBase
					{
						OFFSET 4.230900 -16.068199 23.438400
						CHANNELS 3 Xrotation Yrotation Zrotation
						JOINT LeftToe_End
						{
							OFFSET 4.510700 0.695400 19.974600
							CHANNELS 3 Xrotation Yrotation Zrotation
							End Site
							{
								OFFSET 0 0 0
							}
						}
					}
				}
			}
		}
	}
	JOINT RightUpLeg_virtual
	{
		OFFSET 0.000000 0.000000 0.000000
		CHANNELS 3 Xrotation Yrotation Zrotation
		JOINT RightUpLeg
		{
			OFFSET -11.333700 -6.187798 -0.413800
			CHANNELS 3 Xrotation Yrotation Zrotation
			JOINT RightLeg
			{
				OFFSET -0.430392 -32.302628 3.733000
				CHANNELS 3 Xrotation Yrotation Zrotation
				JOINT RightFoot
				{
					OFFSET 0.430392 -48.264973 -6.423500
					CHANNELS 3 Xrotation Yrotation Zrotation
					JOINT RightToeBase
					{
						OFFSET -4.230900 -16.068199 23.438400
						CHANNELS 3 Xrotation Yrotation Zrotation
						JOINT RightToe_End
						{
							OFFSET -4.510700 0.695400 19.974600
							CHANNELS 3 Xrotation Yrotation Zrotation
							End Site
							{
								OFFSET 0 0 0
							}
						}
					}
				}
			}
		}
	}
	JOINT Spine_virtual
	{
		OFFSET 0.000000 0.000000 0.000000
		CHANNELS 3 Xrotation Yrotation Zrotation
		JOINT Spine
		{
			OFFSET -0.002400 12.777504 0.315300
			CHANNELS 3 Xrotation Yrotation Zrotation
			JOINT Spine1
			{
				OFFSET -0.002067 5.816869 0.032633
				CHANNELS 3 Xrotation Yrotation Zrotation
				JOINT Spine1_split
				{
					OFFSET -0.002067 5.816869 0.032633
					CHANNELS 3 Xrotation Yrotation Zrotation
					JOINT Spine2
					{
						OFFSET -0.002067 5.816869 0.032633
						CHANNELS 3 Xrotation Yrotation Zrotation
						JOINT Neck_virtual
						{
							OFFSET 0.000000 0.000000 0.000000
							CHANNELS 3 Xrotation Yrotation Zrotation
							JOINT Neck
							{
								OFFSET -0.003700 21.199493 -0.826900
								CHANNELS 3 Xrotation Yrotation Zrotation
								JOINT Head
								{
									OFFSET 0.000000 20.442200 4.834800
									CHANNELS 3 Xrotation Yrotation Zrotation
									JOINT HeadTop_End
									{
										OFFSET 0.000000 34.668396 4.968400
										CHANNELS 3 Xrotation Yrotation Zrotation
										End Site
										{
											OFFSET 0 0 0
										}
									}
								}
							}
						}
						JOINT LeftShoulder_virtual
						{
							OFFSET 0.000000 0.000000 0.000000
							CHANNELS 3 Xrotation Yrotation Zrotation
							JOINT LeftShoulder
							{
								OFFSET 3.288150 8.794197 -1.372250
								CHANNELS 3 Xrotation Yrotation Zrotation
								JOINT LeftShoulder_split
								{
									OFFSET 3.288150 8.794197 -1.372250
									CHANNELS 3 Xrotation Yrotation Zrotation
									JOINT LeftArm
									{
										OFFSET 11.953299 -2.279007 -0.146200
										CHANNELS 3 Xrotation Yrotation Zrotation
										JOINT LeftForeArm
										{
											OFFSET 18.448900 0.000000 0.000000
											CHANNELS 3 Xrotation Yrotation Zrotation
											JOINT LeftHand
											{
												OFFSET 29.527798 0.000000 0.000000
												CHANNELS 3 Xrotation Yrotation Zrotation
												End Site
												{
													OFFSET 0 0 0
												}
											}
										}
									}
								}
							}
						}
						JOINT RightShoulder_virtual
						{
							OFFSET 0.000000 0.000000 0.000000
							CHANNELS 3 Xrotation Yrotation Zrotation
							JOINT RightShoulder
							{
								OFFSET -3.249400 8.794197 -1.372250
								CHANNELS 3 Xrotation Yrotation Zrotation
								JOINT RightShoulder_split
								{
									OFFSET -3.249400 8.794197 -1.372250
									CHANNELS 3 Xrotation Yrotation Zrotation
									JOINT RightArm
									{
										OFFSET -11.953299 -2.279007 -0.146200
										CHANNELS 3 Xrotation Yrotation Zrotation
										JOINT RightForeArm
										{
											OFFSET -18.448900 0.000000 0.000000
											CHANNELS 3 Xrotation Yrotation Zrotation
											JOINT RightHand
											{
												OFFSET -29.527802 0.000000 0.000000
												CHANNELS 3 Xrotation Yrotation Zrotation
												End Site
												{
													OFFSET 0 0 0
												}
											}
										}
									}
								}
							}
						}
					}
				}
			}
		}
	}
}
MOTION
Frames: 11
Frame Time: 0.03333333
5.019348 61.675327 122.132004 0.000000 0.000000 0.000000 18.299117 -57.756626 29.821029 -83.197899 -44.258038 26.644993 90.580903 3.860175 -40.752938 5.592333 -3.436133 -20.795003 4.435192 1.266575 -6.045171 0.000000 0.000000 0.000000 15.974520 -56.728409 30.145860 -90.786185 26.908353 -18.252692 102.009435 6.011750 -0.224619 -26.861338 -2.374646 13.694201 6.492459 -1.675866 -0.129226 0.000000 0.000000 0.000000 14.460602 -59.049635 26.377228 36.071073 -2.694208 -11.173491 0.940970 4.849407 -1.338512 1.228216 -1.556386 1.529224 0.000000 0.000000 0.000000 1.166989 5.592683 -0.606397 -13.807340 18.079415 -1.606588 4.223061 22.011792 -19.169600 0.000000 0.000000 0.000000 4.507056 5.383690 -0.867385 3.586342 -18.597644 -3.630912 -4.692299 0.568557 -3.059554 -20.592839 23.195237 -24.812795 -50.887228 -79.074794 -41.039492 0.000000 0.000000 0.000000 4.371088 5.844227 -0.835587 -1.821985 30.213984 19.646138 3.130595 6.275130 -0.459434 -50.776415 -6.292441 19.779195 -34.623428 58.405863 29.805190 0.000000 0.000000 0.000000 
5.525228 62.153976 122.747192 0.000000 0.000000 0.000000 19.907450 -55.492705 29.393938 -86.842024 -45.361264 25.574622 93.719204 4.120059 -43.787810 5.173679 -2.851327 -20.635695 3.815102 1.241319 -3.464746 0.000000 0.000000 0.000000 17.553094 -55.856344 29.653925 -92.061244 26.387543 -19.666596 101.136810 6.055369 0.786820 -28.904674 -4.758005 14.619356 9.556389 -1.180997 -0.803844 0.000000 0.000000 0.000000 15.568369 -57.133716 25.563375 37.989953 -3.279345 -11.866729 0.709300 4.747254 -1.007263 1.212883 -1.618331 1.366396 0.000000 0.000000 0.000000 1.014770 5.340144 -0.068898 -14.735346 19.067358 -1.609152 1.763971 21.813210 -17.367117 0.000000 0.000000 0.000000 4.555216 5.205327 -0.459605 4.746062 -18.386550 -2.659907 -5.489845 0.049881 -3.497033 -20.681369 18.981504 -25.923056 -30.061510 -75.440177 -21.461264 0.000000 0.000000 0.000000 4.152542 5.664676 -0.537406 -1.161144 29.706641 20.671335 4.716296 6.324860 0.540698 -53.616449 -3.965575 22.668114 -35.097006 59.621623 30.473633 0.000000 0.000000 0.000000 
5.862175 63.343010 122.758774 0.000000 0.000000 0.000000 21.445307 -54.109711 29.095045 -86.378322 -45.158670 25.673587 94.466195 5.145245 -45.159172 4.158431 -2.746185 -20.051181 -0.484133 1.087635 -0.614603 0.000000 0.000000 0.000000 19.489313 -55.626071 29.411259 -91.997833 25.178558 -20.768686 98.857419 5.992475 1.340925 -29.814643 -6.609636 15.678880 11.859236 -0.565074 -1.941655 0.000000 0.000000 0.000000 17.416810 -55.543850 25.224401 38.110144 -3.505983 -12.317236 0.570303 4.753467 -0.817325 1.246800 -2.041448 1.100663 0.000000 0.000000 0.000000 1.322784 5.263819 0.194970 -15.827478 19.859994 -1.223672 -0.650772 21.490195 -15.367270 0.000000 0.000000 0.000000 4.660582 5.150892 -0.178496 5.229100 -18.321803 -1.768449 -6.031860 -0.554579 -4.433308 -21.923350 14.892012 -26.356098 -19.848823 -71.246714 -12.231899 0.000000 0.000000 0.000000 4.066609 5.545771 -0.368855 -0.619424 28.366667 21.266754 6.153581 6.253313 1.261614 -57.102994 -3.862128 24.445071 -39.738730 63.692894 35.590009 0.000000 0.000000 0.000000 
6.138234 65.065376 122.564819 0.000000 0.000000 0.000000 22.533141 -53.969197 28.977569 -83.477664 -43.517266 26.523916 93.695155 6.343935 -45.058837 2.957222 -3.190652 -18.733665 -5.522306 0.761046 1.556126 0.000000 0.000000 0.000000 21.330539 -55.924974 29.369417 -90.653290 23.793889 -21.215437 95.083159 6.008013 1.081782 -28.728349 -7.548394 17.448746 12.150975 -0.025806 -3.013624 0.000000 0.000000 0.000000 19.611333 -54.717643 25.386763 36.624144 -3.420552 -12.683029 0.611990 4.760244 -0.686663 1.237047 -2.629001 0.875088 0.000000 0.000000 0.000000 2.001440 5.256822 0.276416 -17.084127 20.475481 -0.664823 -2.852107 21.184687 -13.370515 0.000000 0.000000 0.000000 4.801916 5.153741 0.060042 4.984027 -18.587217 -1.060754 -6.220169 -0.872011 -5.399579 -23.714903 11.226399 -26.686712 -14.788942 -68.070205 -8.005059 0.000000 0.000000 0.000000 4.094257 5.417367 -0.223876 -0.250512 26.493172 21.478787 7.150604 6.128608 1.892746 -59.394034 -5.812559 25.488400 -50.008398 69.024034 46.487504 0.000000 0.000000 0.000000 
6.400451 66.985497 122.871689 0.000000 0.000000 0.000000 22.622271 -54.638272 28.587835 -79.483724 -40.749339 27.363949 91.745792 7.477315 -43.681840 1.452260 -3.534466 -16.393945 -7.908207 0.703903 2.032204 0.000000 0.000000 0.000000 22.593291 -56.478619 29.223104 -87.736901 22.295916 -21.224507 89.985946 6.002062 0.145627 -26.016950 -7.539750 19.402011 10.412607 0.312556 -3.502827 0.000000 0.000000 0.000000 21.083998 -54.566081 25.473156 34.007252 -3.145115 -12.997602 0.880767 4.677035 -0.587301 1.235659 -2.534322 0.904706 0.000000 0.000000 0.000000 2.874610 5.190715 0.231311 -18.467816 20.898876 -0.059241 -4.662476 21.086230 -11.578493 0.000000 0.000000 0.000000 5.019443 5.085295 0.280603 4.086831 -19.164696 -0.727854 -5.631802 -1.094342 -5.735385 -25.389389 8.342898 -27.286107 -11.867147 -66.456122 -5.832601 0.000000 0.000000 0.000000 4.251430 5.231621 -0.060389 -0.137739 24.501410 21.142287 7.477043 5.884935 2.659430 -59.861082 -9.105913 26.240754 -67.454211 73.452510 64.579855 0.000000 0.000000 0.000000 
6.483244 69.079201 123.792648 0.000000 0.000000 0.000000 21.661031 -55.737595 27.818181 -74.904424 -37.072778 27.502918 88.848064 8.594318 -41.333911 -0.865323 -3.296853 -13.285959 -6.037778 1.176532 0.766009 0.000000 0.000000 0.000000 22.778385 -56.984371 28.659119 -83.274056 20.471600 -21.197675 83.885754 5.944745 -1.120688 -23.007484 -6.641395 20.460685 8.111968 0.360135 -3.344816 0.000000 0.000000 0.000000 21.454529 -54.864649 25.312691 30.876905 -2.755838 -13.191145 1.418552 4.485976 -0.604772 0.893781 -2.109637 1.277761 0.000000 0.000000 0.000000 3.873549 4.970741 0.038201 -19.903899 21.204181 0.482109 -5.951900 21.366227 -10.129178 0.000000 0.000000 0.000000 5.317014 4.866433 0.367627 2.672110 -19.911960 -0.888800 -4.519538 -1.061357 -5.231436 -26.614174 6.313354 -28.176009 -9.320098 -65.159595 -4.024306 0.000000 0.000000 0.000000 4.518649 4.931517 0.026747 -0.276114 22.664323 20.038651 6.866018 5.522302 3.520031 -58.560526 -12.841539 26.825990 -90.463561 75.476896 88.113088 0.000000 0.000000 0.000000 
6.410886 71.362366 125.316742 0.000000 0.000000 0.000000 19.676482 -56.881221 26.384478 -69.269689 -32.720499 27.003233 84.197770 9.614710 -38.060994 -3.691156 -2.913754 -10.789156 -2.736759 1.887290 -0.838583 0.000000 0.000000 0.000000 21.450699 -57.651885 27.310417 -77.608407 18.044673 -21.662585 77.742805 5.718937 -2.340848 -20.715455 -5.148470 19.816254 6.927698 0.124380 -2.676262 0.000000 0.000000 0.000000 20.299508 -55.476180 24.528514 27.666289 -2.352985 -13.121811 2.204488 4.153055 -0.855916 0.675565 -1.808011 1.343405 0.000000 0.000000 0.000000 4.889974 4.533286 -0.342671 -21.062931 21.378410 1.009861 -6.592603 22.061426 -8.986756 0.000000 0.000000 0.000000 5.706977 4.466132 0.196821 0.938996 -20.651459 -1.543044 -3.583383 -0.934249 -3.969928 -27.299445 4.928852 -29.308693 -6.505401 -62.657205 -2.040993 0.000000 0.000000 0.000000 4.915226 4.483621 -0.096754 -0.615341 21.088547 17.965228 5.412851 4.872383 4.180264 -56.088305 -16.235795 27.357708 -111.322077 75.177584 109.317847 0.000000 0.000000 0.000000 
6.086316 73.916367 127.213516 0.000000 0.000000 0.000000 16.709144 -57.710147 24.188164 -62.281141 -27.946689 26.034122 77.627484 10.219385 -33.765061 -5.865404 -2.922565 -9.576567 -1.821936 2.519659 -1.487195 0.000000 0.000000 0.000000 18.699796 -58.184694 25.110258 -71.078268 14.782775 -22.826154 72.131558 5.368829 -3.299627 -19.197553 -3.400999 17.843847 7.356073 -0.285908 -1.974289 0.000000 0.000000 0.000000 17.801546 -56.076864 23.015939 24.705076 -2.014223 -12.691635 3.138683 3.663664 -1.412005 0.656553 -1.442839 1.419688 0.000000 0.000000 0.000000 5.921908 3.879455 -0.938571 -21.759765 21.432131 1.589696 -6.486692 23.157104 -8.060398 0.000000 0.000000 0.000000 6.187706 3.845741 -0.313840 -0.925465 -21.071521 -2.630842 -3.032010 -0.528279 -2.490226 -27.300314 3.784505 -30.646307 -3.703397 -57.803788 -0.160053 0.000000 0.000000 0.000000 5.493647 3.872947 -0.506277 -1.071817 19.683422 15.008407 3.729179 4.164141 4.298222 -53.152266 -18.885634 27.771517 -125.707064 73.852978 123.954778 0.000000 0.000000 0.000000 
5.491333 76.805458 128.916824 0.000000 0.000000 0.000000 13.161050 -57.960972 21.364354 -54.565715 -22.980798 24.574894 69.890860 10.059054 -28.840143 -6.519584 -3.433485 -9.010493 -3.195405 2.787356 -1.032250 0.000000 0.000000 0.000000 14.941794 -58.343203 22.135914 -64.033044 10.697091 -24.439863 66.732990 5.150708 -4.027068 -17.676997 -1.547733 16.109898 7.419349 -0.728298 -1.768474 0.000000 0.000000 0.000000 14.364342 -56.424466 20.845051 22.067136 -1.748333 -11.847474 4.135965 3.006451 -2.253322 1.038755 -1.659562 1.541578 0.000000 0.000000 0.000000 6.957540 3.048364 -1.698434 -21.976762 21.399295 2.340240 -5.804866 24.295302 -7.146991 0.000000 0.000000 0.000000 6.754200 3.052327 -1.133892 -2.758305 -20.909285 -3.870272 -3.135672 -0.177655 -1.286604 -26.608848 2.394772 -32.206514 -1.605706 -50.665599 0.935100 0.000000 0.000000 0.000000 6.192521 3.101146 -1.187911 -1.635596 18.440662 11.623700 2.422236 3.384495 3.912495 -50.077683 -20.596063 28.143072 -134.884953 72.460008 133.438114 0.000000 0.000000 0.000000 
4.715599 79.971680 130.262360 0.000000 0.000000 0.000000 9.768053 -57.724189 18.212694 -47.029612 -18.021917 23.132538 61.404268 9.058760 -23.933123 -5.677594 -4.104752 -8.362376 -4.946096 2.648377 -0.164753 0.000000 0.000000 0.000000 10.678718 -58.248789 18.555462 -56.565960 6.097506 -25.911258 61.107988 5.130792 -4.588978 -15.404247 0.274950 15.643071 5.492093 -1.153836 -2.181821 0.000000 0.000000 0.000000 10.733425 -56.650258 18.202992 19.797360 -1.558934 -10.588601 5.112142 2.202739 -3.241033 1.806346 -2.041136 1.318167 0.000000 0.000000 0.000000 7.894248 2.133182 -2.535904 -21.794702 21.287254 3.426001 -4.874799 25.233792 -6.053289 0.000000 0.000000 0.000000 7.389227 2.123678 -2.126141 -4.432843 -20.102365 -4.877006 -3.493063 0.279752 -0.579812 -25.681096 0.670541 -33.810833 -0.230097 -42.993548 1.244929 0.000000 0.000000 0.000000 6.972503 2.213037 -2.013157 -2.339551 17.385423 8.315027 1.779144 2.640300 3.295928 -46.975903 -21.413592 28.592511 -140.749203 71.423718 139.834080 0.000000 0.000000 0.000000 
3.802537 83.270691 131.087219 0.000000 0.000000 0.000000 6.751171 -57.102687 14.860234 -40.577645 -13.219175 22.049731 52.661291 7.828832 -19.716296 -4.242735 -4.177377 -6.981393 -5.303413 2.281257 0.365617 0.000000 0.000000 0.000000 6.853069 -57.849544 14.815555 -48.914509 1.351134 -26.490578 54.624841 5.108531 -4.960498 -12.838921 1.630954 15.967804 2.674155 -1.560240 -2.859180 0.000000 0.000000 0.000000 7.699233 -56.810600 15.429298 17.875853 -1.389266 -8.926658 6.050150 1.383712 -4.228601 2.058214 -2.300174 1.194201 0.000000 0.000000 0.000000 8.728458 1.263702 -3.363263 -21.396765 21.233547 4.818625 -4.033073 25.831087 -4.776104 0.000000 0.000000 0.000000 8.062066 1.192335 -3.119882 -5.850169 -18.683556 -5.419120 -3.949942 0.852492 -0.178977 -24.257863 -0.758963 -35.234583 0.760338 -36.597789 1.156460 0.000000 0.000000 0.000000 7.750628 1.310555 -2.885614 -3.159200 16.504510 5.554777 1.881616 2.015860 2.682403 -43.869742 -21.593143 28.966180 -144.924088 70.612524 144.772239 0.000000 0.000000 0.000000 
